<?xml version="1.0" encoding="UTF-8"?> <svg xmlns="http://www.w3.org/2000/svg" xmlns:xlink="http://www.w3.org/1999/xlink" width="250" height="63" viewBox="0 0 250 63"><g id="Group"><path id="Path" fill="#1fff93" stroke="none" d="M 237.755783 33.091934 C 237.585251 33.464516 237.653473 33.870968 237.61937 34.27742 C 237.312408 37.224194 236.425659 39.967743 235.061401 42.575806 C 234.85675 42.948387 234.481583 43.151611 234.174622 43.422577 C 232.708038 44.641937 231.070938 45.590324 229.229187 46.199997 C 228.17189 46.572578 227.08049 46.77581 225.920883 46.911293 C 225.238754 46.979031 224.590729 47.012905 223.942688 46.979031 C 222.066833 46.911293 220.259201 46.470966 218.519791 45.725807 C 216.541611 44.845161 214.836304 43.625809 213.403824 42.033871 C 211.937256 40.408066 210.879944 38.511292 210.231934 36.411293 C 209.822647 34.988708 209.583908 33.566128 209.617996 32.10968 C 209.686218 29.061291 210.607101 26.25 212.38063 23.743549 C 213.608459 21.982258 215.211456 20.593548 217.053207 19.509678 C 218.724411 18.52742 220.566177 17.883873 222.47612 17.646778 C 224.522507 17.375809 226.603012 17.511288 228.61528 18.087093 C 230.593445 18.662907 232.401093 19.61129 234.004089 20.932259 C 234.515686 21.372581 234.993179 21.846775 235.470673 22.320969 C 236.493866 23.303226 236.664398 24.590321 237.005463 25.809677 C 237.414719 27.198387 237.61937 28.620968 237.687592 30.077419 C 237.687592 30.145161 237.687592 30.246777 237.755783 30.314518 C 237.755783 31.19516 237.755783 32.143547 237.755783 33.091934 Z"></path><path id="path1" fill="#06c5ed" stroke="none" d="M 233.901764 19.137096 C 233.492493 18.967743 233.185547 18.662907 232.810364 18.425804 C 229.877213 16.461292 226.671204 15.27581 223.192368 14.835484 C 218.997269 14.327419 214.938614 14.937099 211.084595 16.732258 C 206.480225 18.900002 203.001373 22.253223 200.716232 26.758064 C 199.522507 29.095161 198.772171 31.601614 198.533417 34.209679 C 197.953629 40.035484 199.4543 45.251617 202.967255 49.925804 C 204.126877 51.41613 205.457031 52.770969 206.991821 53.88871 C 207.094131 53.956451 207.230545 54.024193 207.264664 54.19355 C 206.412003 53.956451 205.593445 53.685486 204.809006 53.312901 C 197.47612 50.061291 192.803543 44.574196 190.893585 36.817741 C 190.450211 34.988708 190.24556 33.091934 190.313782 31.19516 C 190.484314 25.437096 192.428375 20.322582 196.316498 16.020969 C 199.897675 12.024193 204.365631 9.449997 209.686218 8.535484 C 216.78035 7.282257 223.192368 8.941933 228.854019 13.412907 C 230.763977 14.937099 232.366974 16.698387 233.731232 18.730648 C 233.799454 18.866127 233.935883 18.967743 233.901764 19.137096 L 233.901764 19.137096 Z"></path><path id="path2" fill="#333333" stroke="none" d="M 105.525238 26.656452 C 106.173256 25.809677 106.855385 25.030647 107.742157 24.420967 C 110.266029 22.69355 112.960442 22.38871 115.757164 23.574192 C 117.053207 24.116127 117.871765 25.16613 118.485672 26.385483 C 118.553886 26.487095 118.587997 26.622581 118.690315 26.791935 C 119.099594 26.216129 119.508865 25.674194 119.986351 25.16613 C 121.487045 23.675808 123.294678 22.964516 125.375175 22.896774 C 126.500679 22.862904 127.592087 22.930645 128.683487 23.337097 C 130.661667 24.048386 131.753067 25.538712 132.332886 27.469353 C 132.67395 28.620968 132.810364 29.80645 132.810364 30.991936 C 132.810364 35.36129 132.810364 39.764519 132.810364 44.133873 C 132.810364 44.47258 132.708054 44.506447 132.401093 44.506447 C 130.491135 44.506447 128.547058 44.506447 126.6371 44.506447 C 126.296036 44.506447 126.227837 44.404839 126.227837 44.099998 C 126.227837 40.204838 126.227837 36.309677 126.227837 32.414513 C 126.227837 31.567741 126.125511 30.754841 125.852661 29.941936 C 125.477486 28.858063 124.761253 28.146774 123.601639 27.94355 C 122.339706 27.706451 121.248291 28.011288 120.395638 29.02742 C 119.57708 29.975807 119.236015 31.09355 119.201912 32.312904 C 119.167801 33.532257 119.167801 34.75161 119.167801 35.970966 C 119.167801 38.680645 119.167801 41.424194 119.167801 44.133873 C 119.167801 44.438709 119.099594 44.540321 118.75853 44.540321 C 116.814461 44.540321 114.870392 44.506447 112.960442 44.540321 C 112.619377 44.540321 112.585266 44.438709 112.585266 44.133873 C 112.585266 40.137096 112.585266 36.106453 112.585266 32.10968 C 112.585266 31.5 112.517052 30.856453 112.346519 30.280647 C 112.005455 29.095161 111.323326 28.248386 110.061394 27.977417 C 108.697136 27.706451 107.503418 28.045162 106.616646 29.129032 C 105.798096 30.179031 105.559341 31.398386 105.559341 32.685486 C 105.559341 36.479031 105.559341 40.272583 105.559341 44.099998 C 105.559341 44.47258 105.457031 44.540321 105.115967 44.540321 C 103.206001 44.506447 101.296043 44.540321 99.386086 44.540321 C 99.079124 44.540321 98.976814 44.506447 98.976814 44.16774 C 98.976814 37.393547 98.976814 30.585484 98.976814 23.77742 C 98.976814 23.47258 99.045021 23.404839 99.351974 23.404839 C 101.296043 23.404839 103.240112 23.404839 105.218285 23.404839 C 105.525238 23.404839 105.559341 23.47258 105.559341 23.77742 C 105.491127 24.725807 105.525238 25.708065 105.525238 26.656452 Z"></path><path id="path3" fill="#0dd9cf" stroke="none" d="M 233.76535 44.709679 C 233.015015 45.962902 232.060028 47.046772 231.03685 48.096775 C 227.489761 51.653225 223.260559 53.922581 218.281036 54.803226 C 215.006836 55.412907 211.732605 55.311291 208.492493 54.532257 C 207.912674 54.396774 207.537521 53.922581 207.128235 53.550003 C 203.444748 50.264515 201.0914 46.199997 200.204636 41.356453 C 199.420197 36.987095 199.897675 32.753227 201.807648 28.72258 C 204.774902 22.490322 209.652115 18.52742 216.371078 16.83387 C 217.701218 16.495159 219.099594 16.291939 220.497955 16.325806 C 219.474762 16.596775 218.451569 16.935482 217.462479 17.375809 C 215.893585 18.087093 214.495239 19.001614 213.233292 20.187096 C 210.607101 22.625809 208.901779 25.572582 208.32196 29.095161 C 207.537521 33.769356 208.594803 38.003227 211.527969 41.729031 C 214.017731 44.879032 217.257843 46.809677 221.214172 47.520969 C 224.556625 48.164516 227.796738 47.72419 230.900406 46.301613 C 231.889511 45.86129 232.810364 45.251617 233.731232 44.675804 C 233.731232 44.675804 233.76535 44.675804 233.76535 44.709679 Z"></path><path id="path4" fill="#333333" stroke="none" d="M 174.829453 25.911289 C 174.829453 21.779034 174.829453 17.782257 174.829453 13.785484 C 174.829453 13.379032 174.931793 13.27742 175.341049 13.27742 C 177.251022 13.311291 179.16098 13.311291 181.070953 13.27742 C 181.377899 13.27742 181.446106 13.379032 181.446106 13.650002 C 181.446106 23.811291 181.446106 34.006454 181.446106 44.16774 C 181.446106 44.47258 181.377899 44.574196 181.070953 44.540321 C 179.126877 44.506447 177.182816 44.506447 175.204636 44.540321 C 174.897675 44.540321 174.829453 44.438709 174.829453 44.16774 C 174.863571 43.354839 174.829453 42.541935 174.829453 41.593552 C 174.55661 41.932259 174.35199 42.237095 174.147339 42.474194 C 172.37381 44.540321 170.054565 45.217743 167.462479 45.014515 C 163.710785 44.743553 161.221008 42.711288 160.061386 39.22258 C 158.833572 35.564514 158.935883 31.838709 160.572983 28.282257 C 161.869034 25.470966 164.051849 23.608063 167.189636 23.066128 C 168.826736 22.795162 170.429749 22.795162 172.032745 23.404839 C 173.124146 23.811291 173.942703 24.522583 174.590714 25.470966 C 174.624832 25.606453 174.693039 25.708065 174.829453 25.911289 Z M 174.931793 33.735481 C 174.931793 32.922577 174.931793 32.177422 174.795364 31.466129 C 174.4543 29.637096 172.987732 28.180645 171.316498 27.977417 C 169.236023 27.706451 167.633011 28.485485 166.746246 30.348385 C 165.68895 32.651611 165.654846 35.022583 166.473404 37.393547 C 166.916779 38.646774 167.803543 39.561291 169.133698 39.900002 C 171.418823 40.509674 173.431107 39.493546 174.35199 37.258064 C 174.897675 36.106453 174.965897 34.887096 174.931793 33.735481 Z"></path><path id="path5" fill="#333333" stroke="none" d="M 154.70668 38.782257 C 154.70668 40.340324 154.70668 41.796776 154.70668 43.287098 C 154.70668 43.490318 154.604355 43.558067 154.433823 43.625809 C 153.035477 44.303226 151.568893 44.675804 150.034103 44.879032 C 147.885406 45.150002 145.736694 45.183868 143.622101 44.675804 C 139.631653 43.727421 136.971359 40.848389 136.357437 36.851616 C 135.948166 34.108063 136.016373 31.364515 137.244202 28.824192 C 139.085938 25.030647 142.189636 23.066128 146.452927 22.896774 C 148.226471 22.829033 149.931793 23.066128 151.53479 23.811291 C 154.126877 25.064518 155.559341 27.198387 156.207367 29.908066 C 156.548431 31.364515 156.548431 32.88871 156.548431 34.379032 C 156.548431 34.853226 156.753067 35.462902 156.480209 35.733871 C 156.24147 35.970966 155.59346 35.801613 155.15007 35.801613 C 151.125519 35.801613 147.135056 35.801613 143.110504 35.801613 C 142.76944 35.801613 142.667114 35.869354 142.735336 36.241936 C 142.974091 38.44355 144.474762 39.933872 146.82811 40.272583 C 149.522507 40.645161 152.08049 40.238708 154.467941 38.883873 C 154.536148 38.883873 154.570267 38.849998 154.70668 38.782257 Z M 146.521149 31.838709 C 147.714874 31.838709 148.9086 31.838709 150.102325 31.838709 C 150.341064 31.838709 150.44339 31.770969 150.44339 31.533871 C 150.44339 31.12742 150.409271 30.754841 150.341064 30.382256 C 150.102325 29.061291 149.522507 27.94355 148.124146 27.537098 C 146.623459 27.096775 145.29332 27.33387 144.201904 28.485485 C 143.383347 29.332256 142.939972 30.348385 142.701233 31.5 C 142.633026 31.80484 142.667114 31.90645 143.008179 31.90645 C 144.167801 31.838709 145.361526 31.838709 146.521149 31.838709 Z"></path><path id="path6" fill="#383838" stroke="none" d="M 51.466572 25.200001 C 52.319233 24.285484 53.240112 23.574192 54.297405 23.133873 C 59.208733 21 64.563438 23.269352 66.23465 28.349998 C 67.530693 32.279034 67.428375 36.208065 65.68895 40.00161 C 64.290588 43.049999 61.903137 44.980644 58.492496 45.488708 C 56.17326 45.827423 53.956345 45.522579 52.046387 43.998383 C 51.875854 43.862904 51.705322 43.69355 51.500683 43.524193 C 51.398361 43.659676 51.466572 43.795162 51.466572 43.930645 C 51.466572 47.419353 51.466572 50.874191 51.466572 54.362904 C 51.466572 54.66774 51.432472 54.803226 51.057297 54.803226 C 48.806278 54.769356 46.521145 54.769356 44.270123 54.803226 C 43.929058 54.803226 43.860847 54.701614 43.860847 54.362904 C 43.860847 44.032257 43.860847 33.701614 43.860847 23.370968 C 43.860847 22.998386 43.963161 22.930645 44.304226 22.930645 C 46.555252 22.930645 48.806278 22.964516 51.057297 22.930645 C 51.432472 22.930645 51.466572 23.032257 51.466572 23.370968 C 51.466572 23.912903 51.466572 24.488712 51.466572 25.200001 Z M 44.918144 38.816128 C 44.918144 43.659676 44.918144 48.503223 44.918144 53.346775 C 44.918144 53.685486 44.986355 53.787098 45.327419 53.753223 C 46.896317 53.719357 48.431107 53.719357 50.000004 53.753223 C 50.409279 53.753223 50.477489 53.617744 50.443382 53.279034 C 50.443382 51.314514 50.443382 49.383873 50.443382 47.453228 C 50.443382 45.624191 50.443382 43.795162 50.443382 41.966129 C 50.443382 41.830643 50.375168 41.69516 50.511597 41.593552 C 50.716232 41.458065 51.330151 41.627419 51.500683 41.830643 C 52.148701 42.745163 52.933151 43.490318 53.990452 43.930645 C 55.763985 44.709679 57.605728 44.675804 59.447475 44.201614 C 62.107777 43.490318 63.847202 41.69516 64.904503 39.290321 C 66.23465 36.275806 66.336975 33.125809 65.68895 29.908066 C 65.347885 28.180645 64.597542 26.622581 63.301502 25.369354 C 62.039562 24.116127 60.436562 23.574192 58.697136 23.438709 C 56.616646 23.303226 54.706684 23.709679 53.06958 25.064518 C 52.421555 25.606453 51.909958 26.216129 51.466572 26.893547 C 51.227829 27.266129 50.852661 27.096775 50.579811 27.096775 C 50.306957 27.062904 50.443382 26.791935 50.443382 26.622581 C 50.443382 25.877419 50.409279 25.098385 50.443382 24.353226 C 50.477489 23.980648 50.341064 23.912903 49.965893 23.912903 C 48.431107 23.946774 46.896317 23.946774 45.327419 23.912903 C 44.952251 23.912903 44.849934 24.014515 44.849934 24.387096 C 44.918144 29.196774 44.918144 34.006454 44.918144 38.816128 Z"></path><path id="path7" fill="#383838" stroke="none" d="M 10.368349 30.551613 C 10.368349 27.096775 10.879946 24.217743 12.346521 21.60968 C 14.699863 17.341934 18.315144 14.835484 23.19236 14.158066 C 26.023193 13.751614 28.854025 13.920971 31.548431 14.937099 C 35.368347 16.427418 38.062756 19.137096 39.461117 22.930645 C 41.166439 27.604839 41.166439 32.312904 39.188267 36.885483 C 37.039562 41.864517 33.083221 44.709679 27.660299 45.420967 C 24.590723 45.793549 21.589359 45.55645 18.792633 44.235485 C 14.495225 42.237095 11.903138 38.849998 10.845839 34.311291 C 10.470669 32.922577 10.334243 31.5 10.368349 30.551613 Z M 39.597546 29.400002 C 39.563438 27.977417 39.461117 26.419353 39.017735 24.895161 C 37.926331 20.830647 35.538879 17.782257 31.582537 16.088711 C 29.024555 14.970966 26.296043 14.801613 23.56753 15.14032 C 18.553888 15.783875 14.938608 18.391937 12.858118 22.930645 C 10.982265 27.029034 10.879946 31.296774 12.244203 35.564514 C 13.437927 39.22258 15.893587 41.898384 19.47476 43.456451 C 21.930424 44.540321 24.522511 44.743553 27.148703 44.47258 C 31.684856 44.032257 35.163712 41.864517 37.517052 37.969353 C 39.051842 35.395161 39.563438 32.549999 39.597546 29.400002 Z"></path><path id="path8" fill="#333333" stroke="none" d="M 79.399727 16.393547 C 79.399727 16.596775 79.399727 16.83387 79.399727 17.037098 C 79.399727 18.866127 79.399727 20.729031 79.399727 22.558064 C 79.399727 22.862904 79.467941 22.964516 79.774895 22.930645 C 81.139153 22.896774 82.469307 22.930645 83.833565 22.930645 C 84.140518 22.930645 84.208733 22.998386 84.208733 23.303226 C 84.174629 24.996777 84.174629 26.690323 84.208733 28.383873 C 84.208733 28.688709 84.140518 28.756451 83.833565 28.756451 C 82.50341 28.72258 81.173264 28.756451 79.809006 28.756451 C 79.502045 28.756451 79.399727 28.790321 79.399727 29.162903 C 79.43383 31.703226 79.399727 34.243546 79.399727 36.783871 C 79.399727 37.190323 79.43383 37.562904 79.536148 37.935486 C 79.843109 39.188709 80.627556 39.730644 81.923599 39.561291 C 82.605728 39.459679 83.219643 39.188709 83.799454 38.849998 C 84.072304 38.680645 84.208733 38.646774 84.208733 39.053226 C 84.174629 40.814514 84.208733 42.541935 84.208733 44.269356 C 84.208733 44.540321 84.106415 44.675804 83.867668 44.77742 C 82.810371 45.285484 81.68486 45.454838 80.559341 45.522579 C 79.024559 45.624191 77.523872 45.590324 76.091408 45.08226 C 73.703957 44.269356 72.476128 42.474194 72.032738 40.069355 C 71.896317 39.358063 71.862206 38.646774 71.862206 37.935486 C 71.862206 34.988708 71.862206 32.075806 71.862206 29.129032 C 71.862206 28.824192 71.793999 28.72258 71.452934 28.72258 C 70.566162 28.756451 69.645294 28.72258 68.75853 28.72258 C 68.48568 28.72258 68.383354 28.688709 68.383354 28.383873 C 68.383354 26.656452 68.383354 24.962902 68.383354 23.235485 C 68.383354 22.964516 68.48568 22.896774 68.724419 22.896774 C 69.645294 22.896774 70.566162 22.896774 71.521149 22.896774 C 71.793999 22.896774 71.862206 22.829033 71.862206 22.558064 C 71.862206 21.30484 71.862206 20.051613 71.862206 18.798386 C 71.862206 18.595158 71.896317 18.459679 72.135063 18.391937 C 74.522507 17.714516 76.909958 17.037098 79.33152 16.35968 C 79.297409 16.393547 79.33152 16.393547 79.399727 16.393547 Z M 78.410637 32.753227 C 78.410637 32.753227 78.410637 32.753227 78.410637 32.753227 C 78.410637 31.19516 78.410637 29.637096 78.376534 28.079033 C 78.376534 27.808064 78.444748 27.706451 78.717598 27.706451 C 80.081856 27.740322 81.446114 27.706451 82.810371 27.706451 C 83.083221 27.706451 83.151436 27.63871 83.151436 27.367744 C 83.117325 26.317741 83.117325 25.267742 83.151436 24.251614 C 83.151436 23.980648 83.083221 23.879032 82.77626 23.879032 C 81.412003 23.879032 80.081856 23.879032 78.717598 23.879032 C 78.410637 23.879032 78.34243 23.77742 78.34243 23.506451 C 78.34243 21.677418 78.34243 19.848385 78.34243 18.019352 C 78.34243 17.748386 78.308327 17.646778 78.001366 17.748386 C 76.398361 18.22258 74.761253 18.696774 73.124146 19.137096 C 72.851295 19.204838 72.783081 19.30645 72.783081 19.577419 C 72.783081 20.864517 72.783081 22.185482 72.783081 23.47258 C 72.783081 23.811291 72.714867 23.912903 72.373802 23.912903 C 71.487045 23.879032 70.566162 23.912903 69.679398 23.912903 C 69.440659 23.912903 69.30423 23.946774 69.338333 24.251614 C 69.372437 25.301613 69.372437 26.351612 69.338333 27.401615 C 69.338333 27.672581 69.440659 27.740322 69.679398 27.706451 C 70.566162 27.706451 71.487045 27.706451 72.373802 27.706451 C 72.714867 27.706451 72.783081 27.808064 72.783081 28.112904 C 72.783081 31.364515 72.783081 34.616127 72.783081 37.867744 C 72.783081 38.646774 72.851295 39.391937 73.021828 40.170967 C 73.499321 42.440323 74.863571 43.862904 77.148705 44.337097 C 78.34243 44.608063 79.570259 44.574196 80.763985 44.47258 C 81.480217 44.404839 82.162346 44.303226 82.844475 44.066132 C 83.015007 43.998383 83.117325 43.930645 83.117325 43.727421 C 83.117325 42.643547 83.117325 41.593552 83.117325 40.509674 C 83.117325 40.30645 83.083221 40.238708 82.844475 40.340324 C 82.298775 40.543549 81.753067 40.577423 81.173264 40.543549 C 80.047745 40.475807 79.229195 40.00161 78.717598 38.985481 C 78.444748 38.44355 78.308327 37.867744 78.308327 37.258064 C 78.410637 35.767742 78.410637 34.27742 78.410637 32.753227 Z"></path><path id="path9" fill="#333333" stroke="none" d="M 94.474762 33.97258 C 94.474762 37.529034 94.474762 41.051613 94.474762 44.608063 C 94.474762 44.980644 94.338341 45.08226 93.997276 45.048386 C 91.746246 45.014515 89.529335 45.048386 87.278305 45.048386 C 86.971352 45.048386 86.869034 44.980644 86.869034 44.641937 C 86.869034 37.529034 86.869034 30.382256 86.869034 23.269352 C 86.869034 22.998386 86.937241 22.896774 87.210098 22.896774 C 89.495224 22.896774 91.780357 22.896774 94.099586 22.896774 C 94.440651 22.896774 94.474762 22.998386 94.474762 23.303226 C 94.474762 26.85968 94.474762 30.41613 94.474762 33.97258 Z M 87.892227 33.97258 C 87.892227 37.190323 87.892227 40.441936 87.892227 43.659676 C 87.892227 43.964516 87.960434 44.032257 88.267387 44.032257 C 89.870392 43.998383 91.473404 44.032257 93.076393 44.032257 C 93.349251 44.032257 93.451569 43.964516 93.451569 43.659676 C 93.451569 37.190323 93.451569 30.720966 93.451569 24.285484 C 93.451569 23.980648 93.383354 23.912903 93.076393 23.912903 C 91.473404 23.946774 89.870392 23.946774 88.301498 23.912903 C 87.960434 23.912903 87.892227 24.014515 87.892227 24.319355 C 87.892227 27.537098 87.892227 30.754841 87.892227 33.97258 Z"></path><path id="path10" fill="#383838" stroke="none" d="M 90.791275 20.593548 C 88.813095 20.593548 87.278305 19.645161 86.664398 18.120968 C 85.743515 15.817741 87.244202 13.345158 89.768082 12.97258 C 90.654839 12.837093 91.541611 12.870968 92.394272 13.141937 C 94.099586 13.717743 95.054573 15.106453 94.986359 16.969357 C 94.952248 18.561291 93.758522 19.983871 92.155533 20.424194 C 91.678032 20.559677 91.200546 20.627419 90.791275 20.593548 Z M 90.723053 13.920971 C 90.381989 13.920971 90.040924 13.920971 89.699867 14.022579 C 88.506142 14.293549 87.61937 15.208061 87.482948 16.325806 C 87.312416 17.612904 87.892227 18.662907 89.085953 19.238712 C 89.870392 19.61129 90.68895 19.645161 91.5075 19.543549 C 92.803551 19.340324 93.826744 18.391937 93.963165 17.240322 C 94.133698 15.885483 93.553886 14.767742 92.326065 14.225807 C 91.814468 13.988712 91.268761 13.887096 90.723053 13.920971 Z"></path><path id="path11" fill="#da61a4" stroke="none" d="M 233.731232 44.675804 C 233.76535 44.641937 233.76535 44.574196 233.833557 44.608063 C 233.867676 44.641937 233.833557 44.675804 233.799454 44.709679 C 233.76535 44.675804 233.731232 44.675804 233.731232 44.675804 Z"></path><path id="path12" fill="#da61a4" stroke="none" d="M 233.935883 19.137096 C 233.935883 19.137096 233.969986 19.170971 233.969986 19.170971 C 233.935883 19.204838 233.935883 19.170971 233.935883 19.137096 C 233.901764 19.137096 233.935883 19.137096 233.935883 19.137096 Z"></path><path id="path13" fill="#383838" stroke="none" d="M 60.33424 33.19355 C 60.33424 35.05645 60.129604 36.580643 59.413368 38.003227 C 57.844479 41.119354 53.81992 41.153225 52.01228 39.391937 C 51.193726 38.579033 50.648022 37.562904 50.477489 36.411293 C 50.238747 34.650002 50.170536 32.854839 50.682129 31.09355 C 51.739426 27.604839 54.911324 26.690323 57.571625 27.774193 C 59.004093 28.349998 59.686222 29.535484 60.061394 30.991936 C 60.266029 31.838709 60.33424 32.651611 60.33424 33.19355 Z M 51.398361 34.108063 C 51.398361 35.022583 51.364258 35.869354 51.568893 36.682259 C 51.944065 37.969353 52.660297 39.019356 54.024555 39.425804 C 56.070938 40.035484 57.9809 39.053226 58.731239 36.953224 C 59.447475 34.988708 59.481579 32.990326 58.969986 30.958065 C 58.697136 29.874191 58.04911 28.993549 56.889496 28.654839 C 54.706684 28.011288 52.762619 28.72258 51.807636 30.958065 C 51.364258 32.008064 51.364258 33.091934 51.398361 34.108063 Z"></path><path id="path14" fill="#383838" stroke="none" d="M 33.560711 29.941936 C 33.560711 31.940323 33.287857 33.904839 32.332878 35.767742 C 30.69577 38.883873 27.830832 40.137096 24.624828 39.798386 C 21.657572 39.493546 19.577082 37.83387 18.485676 35.158066 C 16.91678 31.364515 16.950888 27.570969 18.758526 23.879032 C 20.190996 20.898388 23.158255 19.374191 26.466576 19.712902 C 29.911322 20.085484 31.855389 22.151615 32.912689 25.233871 C 33.390179 26.758064 33.526604 28.316128 33.560711 29.941936 Z M 32.50341 29.738712 C 32.537518 28.451614 32.366985 26.995159 31.923601 25.606453 C 30.593451 21.474194 27.28513 20.051613 23.601637 21.033871 C 21.282402 21.643547 19.952251 23.370968 19.167805 25.538712 C 18.349249 27.808064 18.315144 30.179031 18.724421 32.549999 C 19.031378 34.311291 19.781719 35.869354 21.043657 37.156448 C 23.533424 39.662903 29.09277 39.662903 31.309687 35.462902 C 32.23056 33.701614 32.50341 31.838709 32.50341 29.738712 Z"></path></g></svg> 