<?xml version="1.0" encoding="utf-8"?>
<!-- Generator: Adobe Illustrator 17.0.0, SVG Export Plug-In . SVG Version: 6.00 Build 0)  -->
<!DOCTYPE svg PUBLIC "-//W3C//DTD SVG 1.1//EN" "http://www.w3.org/Graphics/SVG/1.1/DTD/svg11.dtd">
<svg version="1.1" id="Layer_1" xmlns="http://www.w3.org/2000/svg" xmlns:xlink="http://www.w3.org/1999/xlink" x="0px" y="0px" viewBox="0 0 600 250" enable-background="new 0 0 600 250" xml:space="preserve">
<path fill="#164295" d="M95.742,239.917v-65.382l39.011-39.02h65.753L95.742,239.917L95.742,239.917z M164.105,239.917H95.74
	l43.213-44.121l69.024,0.176L164.105,239.917L164.105,239.917z"/>
<polygon fill="#D20014" points="74.015,195.972 74.015,239.917 29.915,239.917 "/>
<path fill="#164295" d="M146.104,123.415c-20.711,0-37.468-16.915-37.468-37.625c0-1.108,0-2.215,0.156-3.321V11.33
	c0-1.74,1.424-3.163,3.161-3.163c1.74,0,3.163,1.424,3.163,3.163v53.433c6.638-9.799,18.022-16.44,30.986-16.44
	c20.709,0,37.468,16.917,37.468,37.468C183.572,106.5,166.814,123.415,146.104,123.415L146.104,123.415z M168.078,63.817
	c-5.692-5.692-13.438-9.171-21.974-9.171c-8.695,0-16.442,3.479-22.135,9.171c-4.901,4.901-8.22,11.541-8.852,18.969v3.005
	c0,0.474-0.161,0.79-0.161,0.949c0.161,8.38,3.638,15.651,9.012,21.184c5.692,5.692,13.44,9.169,22.135,9.169
	c8.536,0,16.282-3.477,21.974-9.169c5.692-5.69,9.171-13.438,9.171-22.133C177.248,77.255,173.769,69.509,168.078,63.817
	L168.078,63.817z M230.365,54.646c-8.695,0-16.44,3.479-21.976,9.169c-5.531,5.535-9.01,13.281-9.01,21.976v34.465
	c0,1.739-1.424,3.161-3.161,3.161c-1.738,0-3.161-1.424-3.161-3.161V85.79c0-10.276,4.111-19.761,10.907-26.558
	c6.64-6.643,15.968-10.91,26.402-10.91c1.738,0,3.163,1.424,3.163,3.161C233.529,53.225,232.104,54.646,230.365,54.646
	L230.365,54.646z M244.277,123.418c-1.739,0-3.164-1.424-3.164-3.164V51.328c0-1.74,1.425-3.161,3.164-3.161
	c1.738,0,3.161,1.421,3.161,3.161v68.925C247.439,121.994,246.015,123.418,244.277,123.418L244.277,123.418z M331.227,89.268v34.148
	c0,0.161,0,0.474-0.158,0.634c0.158,0.158,0.158,0.316,0.158,0.316c0,20.711-16.758,37.627-37.469,37.627
	c-10.749,0-20.392-4.585-27.191-11.697c-1.267-1.264-1.267-3.323,0-4.585c1.264-1.11,3.318-1.11,4.585,0.156
	c5.692,6.009,13.597,9.802,22.607,9.802c8.538,0,16.283-3.638,21.976-9.169c5.69-5.692,9.169-13.438,9.169-22.135v-17.389
	c-6.797,9.804-18.179,16.284-30.986,16.284c-20.709,0-37.468-16.758-37.468-37.468c0-20.55,16.758-37.468,37.468-37.468
	s37.468,16.917,37.468,37.468C331.383,87.055,331.227,88.163,331.227,89.268L331.227,89.268z M315.892,63.817
	c-5.692-5.692-13.438-9.171-21.976-9.171c-8.695,0-16.44,3.479-22.133,9.171c-5.532,5.692-9.012,13.438-9.012,21.974
	c0,8.695,3.479,16.442,9.012,22.133c5.692,5.535,13.438,9.012,22.133,9.012c8.538,0,16.283-3.477,21.976-9.012
	c4.898-5.059,8.22-11.541,9.01-18.971v-3.161c0-0.316,0-0.634,0.158-0.948C324.743,76.623,321.266,69.351,315.892,63.817
	L315.892,63.817z M414.064,123.259c-1.738,0-3.161-1.425-3.161-3.161V85.791c0-8.536-3.477-16.44-9.012-21.974
	c-5.69-5.692-13.438-9.171-22.13-9.171c-8.538,0-16.283,3.479-21.976,9.171c-5.535,5.532-9.012,13.279-9.012,21.974v34.465
	c0,1.739-1.421,3.159-3.161,3.159c-1.738,0-3.161-1.421-3.161-3.159V11.33c0-1.74,1.424-3.163,3.161-3.163
	c1.74,0,3.161,1.424,3.161,3.163v53.593c1.425-2.053,2.845-3.951,4.585-5.69c6.799-6.64,16.126-10.91,26.404-10.91
	c20.709,0,37.465,16.756,37.465,37.468v34.305C417.227,121.834,415.803,123.259,414.064,123.259L414.064,123.259z M456.396,123.415
	c-15.808,0-28.771-12.963-28.771-28.771V54.49h-5.532c-1.74,0-3.161-1.424-3.161-3.164c0-1.738,1.421-3.159,3.161-3.159h5.532
	V11.645c0-1.739,1.424-3.161,3.161-3.161c1.738,0,3.161,1.424,3.161,3.161v36.521h15.81c1.74,0,3.161,1.421,3.161,3.159
	c0,1.74-1.421,3.164-3.161,3.164h-15.81v40.155c0,6.166,2.528,11.697,6.64,15.808c3.953,4.113,9.643,6.64,15.808,6.64
	c1.74,0,3.163,1.264,3.163,3.163C459.559,121.994,458.137,123.415,456.396,123.415L456.396,123.415z"/>
<path fill="#D20014" d="M244.277,136.248c-3.835,1.039-7.272,3.067-10.05,5.847c-4.111,3.951-6.482,9.643-6.482,15.81v10.907h15.651
	c1.74,0,3.163,1.424,3.163,3.164c0,1.736-1.424,3.161-3.163,3.161h-15.651v65.766c0,1.736-1.424,3.161-3.161,3.161
	c-1.737,0-3.161-1.425-3.161-3.161v-65.766h-5.692c-1.738,0-3.164-1.425-3.164-3.161c0-1.74,1.425-3.164,3.164-3.164h5.692v-10.907
	c0-13.835,9.813-25.455,22.854-28.153c0,0,2.46-0.347,3.161,2.306C248.229,135.043,244.277,136.248,244.277,136.248L244.277,136.248
	z M320.227,232.998c-6.797,6.797-16.125,11.066-26.402,11.066c-20.709,0-37.465-16.915-37.465-37.626V172.29
	c0-1.739,1.421-3.164,3.159-3.164c1.738,0,3.161,1.425,3.161,3.164v34.148c0,8.695,3.479,16.442,9.014,22.133
	c5.69,5.69,13.436,9.169,22.13,9.169c8.538,0,16.283-3.479,21.976-9.169c5.532-5.69,9.01-13.438,9.01-22.133v-34.305
	c0-1.738,1.424-3.161,3.163-3.161c1.738,0,3.161,1.424,3.161,3.161v34.305C331.136,216.873,327.024,226.2,320.227,232.998
	L320.227,232.998z M371.764,244.064c-15.81,0-28.773-12.963-28.773-28.773v-40.157h-5.532c-1.738,0-3.159-1.424-3.159-3.161
	c0-1.739,1.422-3.161,3.159-3.161h5.532v-36.517c0-1.74,1.424-3.164,3.163-3.164c1.738,0,3.161,1.424,3.161,3.164v36.517h15.808
	c1.74,0,3.164,1.424,3.164,3.161c0,1.738-1.424,3.161-3.164,3.161h-15.808v40.157c0,6.164,2.53,11.697,6.638,15.81
	c3.954,4.111,9.643,6.638,15.81,6.638c1.74,0,3.161,1.267,3.161,3.164C374.925,242.641,373.503,244.064,371.764,244.064
	L371.764,244.064z M438.793,232.998c-6.799,6.797-16.126,11.066-26.404,11.066c-20.709,0-37.465-16.915-37.465-37.626V172.29
	c0-1.739,1.421-3.164,3.159-3.164s3.161,1.425,3.161,3.164v34.148c0,8.695,3.479,16.442,9.014,22.133
	c5.69,5.69,13.436,9.169,22.13,9.169c8.538,0,16.283-3.479,21.975-9.169c5.532-5.69,9.01-13.438,9.01-22.133v-34.305
	c0-1.738,1.424-3.161,3.163-3.161c1.738,0,3.161,1.424,3.161,3.161v34.305C449.701,216.873,445.591,226.2,438.793,232.998
	L438.793,232.998z M496.494,175.29c-8.696,0-16.442,3.481-21.976,9.171c-5.532,5.532-9.012,13.278-9.012,21.976v34.465
	c0,1.736-1.421,3.161-3.159,3.161s-3.163-1.425-3.163-3.161v-34.465c0-10.276,4.113-19.761,10.91-26.56
	c6.638-6.638,15.968-10.907,26.402-10.907c1.738,0,3.161,1.424,3.161,3.161C499.655,173.872,498.233,175.29,496.494,175.29
	L496.494,175.29z M567.477,202.328l-60.392,17.074c1.582,3.477,3.795,6.482,6.484,9.169c5.531,5.69,13.276,9.169,21.974,9.169
	c6.638,0,12.647-2.053,17.705-5.69c1.426-0.948,3.481-0.634,4.43,0.949c0.946,1.421,0.631,3.321-0.792,4.269
	c-6.005,4.267-13.438,6.797-21.343,6.797c-20.711,0-37.468-16.915-37.468-37.627c0-20.553,16.755-37.468,37.468-37.468
	c3.795,0,7.588,0.474,11.068,1.582c3.635,1.106,7.112,2.843,10.274,5.215c5.061,3.638,8.378,8.064,10.276,12.174
	c1.898,4.269,2.685,8.22,2.685,11.382C569.846,200.586,568.899,201.853,567.477,202.328L567.477,202.328z M561.468,190.628
	c-1.58-3.321-4.111-6.797-8.223-9.802c-2.843-1.897-5.531-3.318-8.378-4.269c-2.845-0.79-6.007-1.264-9.327-1.264
	c-8.696,0-16.442,3.479-21.974,9.169c-5.692,5.692-9.171,13.438-9.171,21.976c0,2.369,0.159,4.744,0.792,6.956l58.018-16.442
	C563.048,195.056,562.418,192.839,561.468,190.628L561.468,190.628z"/>
<polygon fill="#D20014" points="259.19,21.92 242.708,5.441 242.712,38.397 "/>
</svg>
